<mxfile host="app.diagrams.net" modified="2021-02-22T09:27:58.710Z" agent="5.0 (Windows NT 10.0; Win64; x64) AppleWebKit/537.36 (KHTML, like Gecko) Chrome/88.0.4324.182 Safari/537.36" etag="Vvu-UD2rDGLR0SGr6EXZ" version="14.4.2" type="github">
  <diagram id="C5RBs43oDa-KdzZeNtuy" name="Page-1">
    <mxGraphModel dx="1422" dy="804" grid="1" gridSize="10" guides="1" tooltips="1" connect="1" arrows="1" fold="1" page="1" pageScale="1" pageWidth="827" pageHeight="1169" math="0" shadow="0">
      <root>
        <mxCell id="WIyWlLk6GJQsqaUBKTNV-0" />
        <mxCell id="WIyWlLk6GJQsqaUBKTNV-1" parent="WIyWlLk6GJQsqaUBKTNV-0" />
        <mxCell id="ac7DnekotVkutt3g1OVb-25" value="User&lt;br&gt;image&amp;nbsp;&lt;br&gt;email&amp;nbsp;&lt;br&gt;username&lt;br&gt;passw&lt;br&gt;dollars" style="shape=ext;double=1;rounded=0;whiteSpace=wrap;html=1;" parent="WIyWlLk6GJQsqaUBKTNV-1" vertex="1">
          <mxGeometry x="240" y="90" width="120" height="130" as="geometry" />
        </mxCell>
        <mxCell id="ac7DnekotVkutt3g1OVb-26" value="" style="endArrow=classic;startArrow=classic;html=1;entryX=0;entryY=1;entryDx=0;entryDy=0;exitX=0.5;exitY=0;exitDx=0;exitDy=0;" parent="WIyWlLk6GJQsqaUBKTNV-1" source="ac7DnekotVkutt3g1OVb-29" target="ac7DnekotVkutt3g1OVb-25" edge="1">
          <mxGeometry width="50" height="50" relative="1" as="geometry">
            <mxPoint x="230" y="480" as="sourcePoint" />
            <mxPoint x="400" y="290" as="targetPoint" />
            <Array as="points">
              <mxPoint x="180" y="380" />
            </Array>
          </mxGeometry>
        </mxCell>
        <mxCell id="ac7DnekotVkutt3g1OVb-27" value="" style="endArrow=classic;startArrow=classic;html=1;exitX=1;exitY=1;exitDx=0;exitDy=0;" parent="WIyWlLk6GJQsqaUBKTNV-1" source="ac7DnekotVkutt3g1OVb-25" edge="1">
          <mxGeometry width="50" height="50" relative="1" as="geometry">
            <mxPoint x="350" y="340" as="sourcePoint" />
            <mxPoint x="523.6363636363635" y="410" as="targetPoint" />
          </mxGeometry>
        </mxCell>
        <mxCell id="ac7DnekotVkutt3g1OVb-29" value="Costumer&lt;br&gt;completed_service&lt;br&gt;&amp;nbsp;" style="shape=ext;double=1;rounded=0;whiteSpace=wrap;html=1;" parent="WIyWlLk6GJQsqaUBKTNV-1" vertex="1">
          <mxGeometry x="60" y="420" width="120" height="80" as="geometry" />
        </mxCell>
        <mxCell id="ac7DnekotVkutt3g1OVb-30" value="Post&amp;nbsp;&lt;br&gt;image&lt;br&gt;info&amp;nbsp;&lt;br&gt;Employer&amp;nbsp;&lt;br&gt;Costumer&amp;nbsp;" style="shape=ext;double=1;rounded=0;whiteSpace=wrap;html=1;" parent="WIyWlLk6GJQsqaUBKTNV-1" vertex="1">
          <mxGeometry x="300" y="620" width="150" height="80" as="geometry" />
        </mxCell>
        <mxCell id="ac7DnekotVkutt3g1OVb-31" value="" style="endArrow=classic;startArrow=classic;html=1;exitX=0.85;exitY=1.025;exitDx=0;exitDy=0;exitPerimeter=0;" parent="WIyWlLk6GJQsqaUBKTNV-1" source="ac7DnekotVkutt3g1OVb-29" target="ac7DnekotVkutt3g1OVb-30" edge="1">
          <mxGeometry width="50" height="50" relative="1" as="geometry">
            <mxPoint x="350" y="680" as="sourcePoint" />
            <mxPoint x="400" y="630" as="targetPoint" />
          </mxGeometry>
        </mxCell>
        <mxCell id="ac7DnekotVkutt3g1OVb-32" value="" style="endArrow=classic;startArrow=classic;html=1;entryX=0.583;entryY=1.038;entryDx=0;entryDy=0;entryPerimeter=0;exitX=0.75;exitY=0;exitDx=0;exitDy=0;" parent="WIyWlLk6GJQsqaUBKTNV-1" source="ac7DnekotVkutt3g1OVb-30" edge="1">
          <mxGeometry width="50" height="50" relative="1" as="geometry">
            <mxPoint x="520" y="660" as="sourcePoint" />
            <mxPoint x="569.96" y="451.52" as="targetPoint" />
          </mxGeometry>
        </mxCell>
        <mxCell id="GFDl8XNtLgB-MJYnL0Hw-0" value="Emploer&lt;br&gt;completed_orders&lt;br&gt;" style="whiteSpace=wrap;html=1;aspect=fixed;" vertex="1" parent="WIyWlLk6GJQsqaUBKTNV-1">
          <mxGeometry x="520" y="349" width="100" height="100" as="geometry" />
        </mxCell>
        <mxCell id="GFDl8XNtLgB-MJYnL0Hw-1" value="Order_Buffer&lt;br&gt;Emploer&lt;br&gt;Post" style="whiteSpace=wrap;html=1;aspect=fixed;" vertex="1" parent="WIyWlLk6GJQsqaUBKTNV-1">
          <mxGeometry x="700" y="170" width="80" height="80" as="geometry" />
        </mxCell>
        <mxCell id="GFDl8XNtLgB-MJYnL0Hw-2" value="" style="endArrow=classic;startArrow=classic;html=1;" edge="1" parent="WIyWlLk6GJQsqaUBKTNV-1" source="GFDl8XNtLgB-MJYnL0Hw-0" target="GFDl8XNtLgB-MJYnL0Hw-1">
          <mxGeometry width="50" height="50" relative="1" as="geometry">
            <mxPoint x="390" y="410" as="sourcePoint" />
            <mxPoint x="450" y="270" as="targetPoint" />
            <Array as="points">
              <mxPoint x="470" y="320" />
            </Array>
          </mxGeometry>
        </mxCell>
        <mxCell id="GFDl8XNtLgB-MJYnL0Hw-3" value="Buffer_posts&lt;br&gt;Costumer" style="whiteSpace=wrap;html=1;aspect=fixed;" vertex="1" parent="WIyWlLk6GJQsqaUBKTNV-1">
          <mxGeometry x="40" y="140" width="80" height="80" as="geometry" />
        </mxCell>
        <mxCell id="GFDl8XNtLgB-MJYnL0Hw-4" value="" style="endArrow=classic;startArrow=classic;html=1;entryX=0.5;entryY=1;entryDx=0;entryDy=0;exitX=0.667;exitY=0;exitDx=0;exitDy=0;exitPerimeter=0;" edge="1" parent="WIyWlLk6GJQsqaUBKTNV-1" source="ac7DnekotVkutt3g1OVb-29" target="GFDl8XNtLgB-MJYnL0Hw-3">
          <mxGeometry width="50" height="50" relative="1" as="geometry">
            <mxPoint x="390" y="410" as="sourcePoint" />
            <mxPoint x="440" y="360" as="targetPoint" />
            <Array as="points">
              <mxPoint x="60" y="360" />
            </Array>
          </mxGeometry>
        </mxCell>
        <mxCell id="GFDl8XNtLgB-MJYnL0Hw-5" value="" style="endArrow=classic;startArrow=classic;html=1;exitX=1.027;exitY=0.588;exitDx=0;exitDy=0;exitPerimeter=0;entryX=1;entryY=1;entryDx=0;entryDy=0;" edge="1" parent="WIyWlLk6GJQsqaUBKTNV-1" source="ac7DnekotVkutt3g1OVb-30" target="GFDl8XNtLgB-MJYnL0Hw-1">
          <mxGeometry width="50" height="50" relative="1" as="geometry">
            <mxPoint x="390" y="400" as="sourcePoint" />
            <mxPoint x="440" y="350" as="targetPoint" />
            <Array as="points">
              <mxPoint x="650" y="610" />
            </Array>
          </mxGeometry>
        </mxCell>
        <mxCell id="GFDl8XNtLgB-MJYnL0Hw-6" value="Story_Costume&lt;br&gt;Costumer" style="whiteSpace=wrap;html=1;aspect=fixed;" vertex="1" parent="WIyWlLk6GJQsqaUBKTNV-1">
          <mxGeometry x="20" y="680" width="100" height="100" as="geometry" />
        </mxCell>
        <mxCell id="GFDl8XNtLgB-MJYnL0Hw-7" value="Story_Emploer&lt;br&gt;" style="whiteSpace=wrap;html=1;aspect=fixed;" vertex="1" parent="WIyWlLk6GJQsqaUBKTNV-1">
          <mxGeometry x="480" y="90" width="80" height="80" as="geometry" />
        </mxCell>
        <mxCell id="GFDl8XNtLgB-MJYnL0Hw-8" value="" style="endArrow=classic;startArrow=classic;html=1;entryX=0.5;entryY=1;entryDx=0;entryDy=0;exitX=0;exitY=0.75;exitDx=0;exitDy=0;" edge="1" parent="WIyWlLk6GJQsqaUBKTNV-1" source="GFDl8XNtLgB-MJYnL0Hw-0" target="GFDl8XNtLgB-MJYnL0Hw-7">
          <mxGeometry width="50" height="50" relative="1" as="geometry">
            <mxPoint x="390" y="390" as="sourcePoint" />
            <mxPoint x="440" y="340" as="targetPoint" />
            <Array as="points">
              <mxPoint x="420" y="360" />
            </Array>
          </mxGeometry>
        </mxCell>
        <mxCell id="GFDl8XNtLgB-MJYnL0Hw-9" value="" style="endArrow=classic;startArrow=classic;html=1;entryX=0.64;entryY=0;entryDx=0;entryDy=0;entryPerimeter=0;" edge="1" parent="WIyWlLk6GJQsqaUBKTNV-1" source="ac7DnekotVkutt3g1OVb-29" target="GFDl8XNtLgB-MJYnL0Hw-6">
          <mxGeometry width="50" height="50" relative="1" as="geometry">
            <mxPoint x="390" y="380" as="sourcePoint" />
            <mxPoint x="440" y="330" as="targetPoint" />
            <Array as="points">
              <mxPoint x="110" y="610" />
            </Array>
          </mxGeometry>
        </mxCell>
      </root>
    </mxGraphModel>
  </diagram>
</mxfile>
